<?xml version="1.0" encoding="UTF-8" standalone="no"?>
<svg
   width="48"
   height="48"
   viewBox="0 0 48 48"
   version="1.1"
   id="svg6">
  <path
     id="path4"
     d="M 22,2 V 6.1191406 C 13.66,7.0391406 7.0391406,13.66 6.1191406,22 H 2 v 4 H 6.1191406 C 7.0391406,34.34 13.66,40.960859 22,41.880859 V 46 h 4 V 41.880859 C 34.34,40.960859 40.960859,34.34 41.880859,26 H 46 V 22 H 41.880859 C 40.960859,13.66 34.34,7.0391406 26,6.1191406 V 2 Z m 2,8 c 7.73,0 14,6.27 14,14 0,7.73 -6.27,14 -14,14 -7.73,0 -14,-6.27 -14,-14 0,-7.73 6.27,-14 14,-14 z m 0,6 c -4.42,0 -8,3.58 -8,8 0,4.42 3.58,8 8,8 4.42,0 8,-3.58 8,-8 0,-4.42 -3.58,-8 -8,-8 z" />
</svg>
