<?xml version="1.0" encoding="UTF-8" standalone="no"?>
<svg
   xmlns:dc="http://purl.org/dc/elements/1.1/"
   xmlns:cc="http://creativecommons.org/ns#"
   xmlns:rdf="http://www.w3.org/1999/02/22-rdf-syntax-ns#"
   xmlns:svg="http://www.w3.org/2000/svg"
   xmlns="http://www.w3.org/2000/svg"
   xmlns:sodipodi="http://sodipodi.sourceforge.net/DTD/sodipodi-0.dtd"
   xmlns:inkscape="http://www.inkscape.org/namespaces/inkscape"
   width="140mm"
   height="140mm"
   viewBox="0 0 140 140"
   version="1.1"
   id="svg8"
   inkscape:version="1.0.2 (e86c870879, 2021-01-15)"
   sodipodi:docname="street.svg">
  <defs
     id="defs2" />
  <sodipodi:namedview
     id="base"
     pagecolor="#ffffff"
     bordercolor="#666666"
     borderopacity="1.0"
     inkscape:pageopacity="0.0"
     inkscape:pageshadow="2"
     inkscape:zoom="1.4"
     inkscape:cx="170.25339"
     inkscape:cy="250.87314"
     inkscape:document-units="mm"
     inkscape:current-layer="layer1"
     inkscape:document-rotation="0"
     showgrid="false"
     fit-margin-top="0"
     fit-margin-left="0"
     fit-margin-right="0"
     fit-margin-bottom="0"
     inkscape:window-width="1920"
     inkscape:window-height="1009"
     inkscape:window-x="0"
     inkscape:window-y="0"
     inkscape:window-maximized="1" />
  <metadata
     id="metadata5">
    <rdf:RDF>
      <cc:Work
         rdf:about="">
        <dc:format>image/svg+xml</dc:format>
        <dc:type
           rdf:resource="http://purl.org/dc/dcmitype/StillImage" />
        <dc:title></dc:title>
      </cc:Work>
    </rdf:RDF>
  </metadata>
  <g
     inkscape:label="Layer 1"
     inkscape:groupmode="layer"
     id="layer1"
     transform="translate(-28.837603,-135.41588)">
    <path
       sodipodi:type="star"
       style="fill:#000000;stroke-width:1.765;stroke-linecap:square;stroke-linejoin:round"
       id="path835"
       sodipodi:sides="11"
       sodipodi:cx="43.799328"
       sodipodi:cy="62.168709"
       sodipodi:r1="26.622307"
       sodipodi:r2="0.39917082"
       sodipodi:arg1="0.98863885"
       sodipodi:arg2="1.2742382"
       inkscape:flatsided="false"
       inkscape:rounded="0"
       inkscape:randomized="0"
       d="M 58.436999,84.405745 43.915978,62.550455 44.091071,88.789417 43.691072,62.55292 29.652516,84.721202 43.500537,62.4334 19.705474,73.492729 43.404866,62.229843 17.408061,58.668961 43.434434,62.006876 23.489688,44.956337 43.579853,61.83529 36.019482,36.70852 43.794954,61.769562 51.019323,36.544133 44.011443,61.83056 63.726866,44.515368 44.160587,61.998918 70.107556,58.091414 44.195034,62.221184 68.13557,72.961972 44.103847,62.426788 Z"
       inkscape:transform-center-x="-0.26197376"
       inkscape:transform-center-y="-0.54829399" />
    <rect
       style="fill:#e4e4e4;fill-opacity:1;stroke-width:4.5188;stroke-linecap:round;stroke-linejoin:round;stroke-miterlimit:4;stroke-dasharray:none"
       id="rect879"
       width="140"
       height="140"
       x="28.837603"
       y="135.41588" />
    <path
       style="fill:#f5e2a1;stroke:none;stroke-width:0.264583px;stroke-linecap:butt;stroke-linejoin:miter;stroke-opacity:1;fill-opacity:1"
       d="m 80.093853,229.3575 -15.801533,46.06746 52.68069,0.31992 -11.83065,-32.00718 z"
       id="path961" />
    <path
       style="fill:#f5e2a1;fill-opacity:1;stroke:none;stroke-width:0.264583px;stroke-linecap:butt;stroke-linejoin:miter;stroke-opacity:1"
       d="m 139.9415,210.50343 28.6737,-12.13981 0.0593,63.83493 z"
       id="path963"
       sodipodi:nodetypes="cccc" />
    <path
       style="fill:#b3e49d;fill-opacity:1;stroke:none;stroke-width:0.264583px;stroke-linecap:butt;stroke-linejoin:miter;stroke-opacity:1"
       d="m 138.40423,135.37834 13.69513,32.50599 -60.138224,17.90571 -63.15864,-11.83691 0.03511,-38.53725 z"
       id="path965"
       sodipodi:nodetypes="cccccc" />
    <path
       style="fill:#56c4ff;stroke:none;stroke-width:0.264583px;stroke-linecap:butt;stroke-linejoin:miter;stroke-opacity:1;fill-opacity:1"
       d="m 100.75163,135.37183 -43.54468,139.93482 -28.369347,0.10924 0.02419,-17.83253 37.550375,-122.28247 z"
       id="path957" />
    <path
       style="fill:#56c4ff;fill-opacity:1;stroke:none;stroke-width:0.264583px;stroke-linecap:butt;stroke-linejoin:miter;stroke-opacity:1"
       d="M 61.049299,135.98176 28.944797,243.82631 28.837604,135.41588 Z"
       id="path959"
       sodipodi:nodetypes="cccc" />
    <path
       style="fill:#f5f5f5;fill-opacity:1;stroke:none;stroke-width:0.264583px;stroke-linecap:butt;stroke-linejoin:miter;stroke-opacity:1"
       d="m 28.682441,180.20523 c 0,0 59.049315,10.06336 62.822652,10.0022 3.773336,-0.0612 66.191837,-20.05347 66.191837,-20.05347 l -14.8077,-34.64906 25.94837,-0.089 -0.2313,24.89799 0.0851,27.85546 -53.02213,18.46651 c 0,0 20.09723,19.55198 26.59706,31.99524 6.49984,12.44326 14.55296,36.74148 14.55296,36.74148 l -30.96889,-0.001 c 0,0 -3.40946,-21.27884 -13.93597,-31.15185 -2.88151,-12.18672 -29.799972,-33.06506 -29.799972,-33.06506 l -53.114449,-8.9309 z"
       id="path955"
       sodipodi:nodetypes="ccccccccscccccc" />
  </g>
</svg>
